<svg xmlns="http://www.w3.org/2000/svg" xmlns:xlink="http://www.w3.org/1999/xlink" version="1.1" width="1000" height="1000" viewBox="0 0 1000 1000" xml:space="preserve">
<desc>Created with Fabric.js 3.5.0</desc>
<defs>
</defs>
<rect x="0" y="0" width="100%" height="100%" fill="#ffffff"/>
<g transform="matrix(5.6818 0 0 5.6818 499.9985 499.9995)" id="351217">
<g style="" vector-effect="non-scaling-stroke">
		<g transform="matrix(1 0 0 1 -23.305 15.61)">
<path style="stroke: none; stroke-width: 1; stroke-dasharray: none; stroke-linecap: butt; stroke-dashoffset: 0; stroke-linejoin: miter; stroke-miterlimit: 4; is-custom-font: none; font-file-url: none; fill: rgb(228,197,144); fill-rule: nonzero; opacity: 1;" transform=" translate(-56.695, -40.61)" d="M 54 44.46 V 36.76 H 56.651 C 57.2597 36.76 57.7583 36.8627 58.147 37.068 C 58.543 37.2733 58.8363 37.552 59.027 37.904 C 59.2177 38.2487 59.313 38.6337 59.313 39.059 C 59.313 39.5357 59.1847 39.9683 58.928 40.357 C 58.6787 40.7457 58.2863 41.0243 57.751 41.193 L 59.39 44.46 H 58.037 L 56.541 41.358 H 55.166 V 44.46 H 54 Z M 55.166 40.478 H 56.585 C 57.113 40.478 57.498 40.3497 57.74 40.093 C 57.9893 39.8363 58.114 39.5027 58.114 39.092 C 58.114 38.6813 57.993 38.355 57.751 38.113 C 57.509 37.8637 57.1167 37.739 56.574 37.739 H 55.166 V 40.478 Z" stroke-linecap="round"/>
</g>
		<g transform="matrix(1 0 0 1 -12.9001 15.61)">
<path style="stroke: none; stroke-width: 1; stroke-dasharray: none; stroke-linecap: butt; stroke-dashoffset: 0; stroke-linejoin: miter; stroke-miterlimit: 4; is-custom-font: none; font-file-url: none; fill: rgb(228,197,144); fill-rule: nonzero; opacity: 1;" transform=" translate(-67.0999, -40.61)" d="M 64.6524 44.46 V 36.76 H 69.5474 V 37.706 H 65.8184 V 40.104 H 69.2174 V 41.028 H 65.8184 V 43.514 H 69.5474 V 44.46 H 64.6524 Z" stroke-linecap="round"/>
</g>
		<g transform="matrix(1 0 0 1 -2.6614 15.61)">
<path style="stroke: none; stroke-width: 1; stroke-dasharray: none; stroke-linecap: butt; stroke-dashoffset: 0; stroke-linejoin: miter; stroke-miterlimit: 4; is-custom-font: none; font-file-url: none; fill: rgb(228,197,144); fill-rule: nonzero; opacity: 1;" transform=" translate(-77.3386, -40.61)" d="M 77.4376 44.592 C 76.8729 44.592 76.3779 44.493 75.9526 44.295 C 75.5272 44.097 75.1936 43.8147 74.9516 43.448 C 74.7169 43.0813 74.5959 42.645 74.5886 42.139 H 75.8206 C 75.8279 42.5497 75.9709 42.898 76.2496 43.184 C 76.5282 43.47 76.9206 43.613 77.4266 43.613 C 77.8739 43.613 78.2222 43.5067 78.4716 43.294 C 78.7282 43.074 78.8566 42.7953 78.8566 42.458 C 78.8566 42.1867 78.7942 41.9667 78.6696 41.798 C 78.5522 41.6293 78.3872 41.49 78.1746 41.38 C 77.9692 41.27 77.7309 41.171 77.4596 41.083 C 77.1882 40.995 76.9022 40.8997 76.6016 40.797 C 76.0076 40.599 75.5602 40.3423 75.2596 40.027 C 74.9662 39.7117 74.8196 39.2973 74.8196 38.784 C 74.8122 38.3513 74.9112 37.9737 75.1166 37.651 C 75.3292 37.3283 75.6226 37.079 75.9966 36.903 C 76.3779 36.7197 76.8216 36.628 77.3276 36.628 C 77.8262 36.628 78.2626 36.7197 78.6366 36.903 C 79.0179 37.0863 79.3149 37.343 79.5276 37.673 C 79.7402 37.9957 79.8502 38.3733 79.8576 38.806 H 78.6256 C 78.6256 38.608 78.5742 38.421 78.4716 38.245 C 78.3689 38.0617 78.2186 37.9113 78.0206 37.794 C 77.8226 37.6767 77.5806 37.618 77.2946 37.618 C 76.9279 37.6107 76.6236 37.7023 76.3816 37.893 C 76.1469 38.0837 76.0296 38.3477 76.0296 38.685 C 76.0296 38.9857 76.1176 39.2167 76.2936 39.378 C 76.4696 39.5393 76.7116 39.675 77.0196 39.785 C 77.3276 39.8877 77.6796 40.0087 78.0756 40.148 C 78.4569 40.2727 78.7979 40.423 79.0986 40.599 C 79.3992 40.775 79.6376 41.006 79.8136 41.292 C 79.9969 41.578 80.0886 41.941 80.0886 42.381 C 80.0886 42.7697 79.9896 43.1327 79.7916 43.47 C 79.5936 43.8 79.2966 44.0713 78.9006 44.284 C 78.5046 44.4893 78.0169 44.592 77.4376 44.592 Z" stroke-linecap="round"/>
</g>
		<g transform="matrix(1 0 0 1 7.5652 15.61)">
<path style="stroke: none; stroke-width: 1; stroke-dasharray: none; stroke-linecap: butt; stroke-dashoffset: 0; stroke-linejoin: miter; stroke-miterlimit: 4; is-custom-font: none; font-file-url: none; fill: rgb(228,197,144); fill-rule: nonzero; opacity: 1;" transform=" translate(-87.5652, -40.61)" d="M 86.9877 44.46 V 37.706 H 84.7107 V 36.76 H 90.4197 V 37.706 H 88.1537 V 44.46 H 86.9877 Z" stroke-linecap="round"/>
</g>
		<g transform="matrix(1 0 0 1 17.603 15.61)">
<path style="stroke: none; stroke-width: 1; stroke-dasharray: none; stroke-linecap: butt; stroke-dashoffset: 0; stroke-linejoin: miter; stroke-miterlimit: 4; is-custom-font: none; font-file-url: none; fill: rgb(228,197,144); fill-rule: nonzero; opacity: 1;" transform=" translate(-97.603, -40.61)" d="M 94.138 44.46 L 96.976 36.76 H 98.252 L 101.068 44.46 H 99.836 L 99.176 42.579 H 96.03 L 95.37 44.46 H 94.138 Z M 96.36 41.655 H 98.846 L 97.603 38.146 L 96.36 41.655 Z" stroke-linecap="round"/>
</g>
		<g transform="matrix(1 0 0 1 28.6675 15.676)">
<path style="stroke: none; stroke-width: 1; stroke-dasharray: none; stroke-linecap: butt; stroke-dashoffset: 0; stroke-linejoin: miter; stroke-miterlimit: 4; is-custom-font: none; font-file-url: none; fill: rgb(228,197,144); fill-rule: nonzero; opacity: 1;" transform=" translate(-108.6675, -40.676)" d="M 108.651 44.592 C 108.101 44.592 107.602 44.4857 107.155 44.273 C 106.715 44.053 106.363 43.7193 106.099 43.272 C 105.842 42.8247 105.714 42.2563 105.714 41.567 V 36.76 H 106.88 V 41.578 C 106.88 42.2527 107.041 42.7477 107.364 43.063 C 107.686 43.3783 108.123 43.536 108.673 43.536 C 109.215 43.536 109.648 43.3783 109.971 43.063 C 110.293 42.7477 110.455 42.2527 110.455 41.578 V 36.76 H 111.621 V 41.567 C 111.621 42.2563 111.485 42.8247 111.214 43.272 C 110.95 43.7193 110.59 44.053 110.136 44.273 C 109.688 44.4857 109.193 44.592 108.651 44.592 Z" stroke-linecap="round"/>
</g>
		<g transform="matrix(1 0 0 1 39.771 15.61)">
<path style="stroke: none; stroke-width: 1; stroke-dasharray: none; stroke-linecap: butt; stroke-dashoffset: 0; stroke-linejoin: miter; stroke-miterlimit: 4; is-custom-font: none; font-file-url: none; fill: rgb(228,197,144); fill-rule: nonzero; opacity: 1;" transform=" translate(-119.771, -40.61)" d="M 117.076 44.46 V 36.76 H 119.727 C 120.336 36.76 120.835 36.8627 121.223 37.068 C 121.619 37.2733 121.913 37.552 122.103 37.904 C 122.294 38.2487 122.389 38.6337 122.389 39.059 C 122.389 39.5357 122.261 39.9683 122.004 40.357 C 121.755 40.7457 121.363 41.0243 120.827 41.193 L 122.466 44.46 H 121.113 L 119.617 41.358 H 118.242 V 44.46 H 117.076 Z M 118.242 40.478 H 119.661 C 120.189 40.478 120.574 40.3497 120.816 40.093 C 121.066 39.8363 121.19 39.5027 121.19 39.092 C 121.19 38.6813 121.069 38.355 120.827 38.113 C 120.585 37.8637 120.193 37.739 119.65 37.739 H 118.242 V 40.478 Z" stroke-linecap="round"/>
</g>
		<g transform="matrix(1 0 0 1 50.699 15.61)">
<path style="stroke: none; stroke-width: 1; stroke-dasharray: none; stroke-linecap: butt; stroke-dashoffset: 0; stroke-linejoin: miter; stroke-miterlimit: 4; is-custom-font: none; font-file-url: none; fill: rgb(228,197,144); fill-rule: nonzero; opacity: 1;" transform=" translate(-130.699, -40.61)" d="M 127.234 44.46 L 130.072 36.76 H 131.348 L 134.164 44.46 H 132.932 L 132.272 42.579 H 129.126 L 128.466 44.46 H 127.234 Z M 129.456 41.655 H 131.942 L 130.699 38.146 L 129.456 41.655 Z" stroke-linecap="round"/>
</g>
		<g transform="matrix(1 0 0 1 62.2945 15.61)">
<path style="stroke: none; stroke-width: 1; stroke-dasharray: none; stroke-linecap: butt; stroke-dashoffset: 0; stroke-linejoin: miter; stroke-miterlimit: 4; is-custom-font: none; font-file-url: none; fill: rgb(228,197,144); fill-rule: nonzero; opacity: 1;" transform=" translate(-142.2945, -40.61)" d="M 139.198 44.46 V 36.76 H 140.364 L 144.225 42.557 V 36.76 H 145.391 V 44.46 H 144.225 L 140.364 38.663 V 44.46 H 139.198 Z" stroke-linecap="round"/>
</g>
		<g transform="matrix(1 0 0 1 73.2945 15.61)">
<path style="stroke: none; stroke-width: 1; stroke-dasharray: none; stroke-linecap: butt; stroke-dashoffset: 0; stroke-linejoin: miter; stroke-miterlimit: 4; is-custom-font: none; font-file-url: none; fill: rgb(228,197,144); fill-rule: nonzero; opacity: 1;" transform=" translate(-153.2945, -40.61)" d="M 152.717 44.46 V 37.706 H 150.44 V 36.76 H 156.149 V 37.706 H 153.883 V 44.46 H 152.717 Z" stroke-linecap="round"/>
</g>
		<g transform="matrix(1 0 0 1 -61.1311 0)">
<path style="stroke: none; stroke-width: 1; stroke-dasharray: none; stroke-linecap: butt; stroke-dashoffset: 0; stroke-linejoin: miter; stroke-miterlimit: 4; is-custom-font: none; font-file-url: none; fill: rgb(228,197,144); fill-rule: evenodd; opacity: 1;" transform=" translate(-18.869, -25)" d="M 32.5132 42.597 C 29.684 44.1297 26.4436 45 23 45 C 11.9543 45 3 36.0457 3 25 C 3 13.9543 11.9543 5 23 5 C 26.0521 5 28.9446 5.68368 31.5326 6.90625 C 31.3663 7.11885 31.209 7.34319 31.0619 7.57929 C 30.37 8.68974 29.8253 10.0318 29.47 11.4633 C 27.5111 10.5253 25.3169 10 23 10 C 14.7157 10 8 16.7157 8 25 C 8 33.2843 14.7157 40 23 40 C 27.2915 40 31.162 38.1978 33.8961 35.309 C 33.5961 36.4152 33.1892 37.6031 32.6373 38.9318 C 32.2262 39.809 32.1122 40.4488 32.1122 41.4602 C 32.1122 41.8663 32.2596 42.247 32.5132 42.597 Z M 29.0138 14.6134 C 28.8567 18.2765 30.0306 21.8663 33.1625 23.2555 C 34.135 24.128 34.7379 25.2124 34.7379 26.6199 C 34.7379 26.9224 34.7379 27.2186 34.7371 27.5099 C 33.5832 32.9324 28.7666 37 23 37 C 16.3726 37 11 31.6274 11 25 C 11 18.3726 16.3726 13 23 13 C 25.1914 13 27.2456 13.5874 29.0138 14.6134 Z" stroke-linecap="round"/>
</g>
		<g transform="matrix(1 0 0 1 -41.1234 0)">
<path style="stroke: none; stroke-width: 1; stroke-dasharray: none; stroke-linecap: butt; stroke-dashoffset: 0; stroke-linejoin: miter; stroke-miterlimit: 4; is-custom-font: none; font-file-url: none; fill: rgb(228,197,144); fill-rule: nonzero; opacity: 1;" transform=" translate(-38.8766, -25)" d="M 41.7607 22.8781 C 46.7982 20.5576 46.5779 13.151 43.8104 8.53905 C 40.9996 3.85445 36.7943 3.78631 33.9427 8.53905 C 31.1901 13.126 30.9363 20.5491 35.9923 22.8781 C 36.9183 23.7408 37.6263 25.4349 37.6263 26.8266 C 37.6263 31.0162 37.8838 34.3087 35.7001 39.1394 C 35.3086 40.0068 35.1257 40.6631 35.1257 41.2062 C 35.1257 43.2981 36.8081 45 38.8765 45 C 40.9449 45 42.6273 43.2981 42.6273 41.2062 C 42.6273 40.6631 42.4445 40.0068 42.053 39.1394 C 39.8389 34.2417 40.1268 30.7222 40.1268 26.8266 C 40.1268 25.4349 40.8348 23.7408 41.7607 22.8781 Z" stroke-linecap="round"/>
</g>
</g>
</g>
<g transform="matrix(1 0 0 1 617 475.25)" style="" id="102750">
		
<path xml:space="preserve" font-family="Andada" font-size="150" font-style="normal" font-weight="normal" style="stroke: none; stroke-width: 1; stroke-dasharray: none; stroke-linecap: butt; stroke-dashoffset: 0; stroke-linejoin: miter; stroke-miterlimit: 4; is-custom-font: none; font-file-url: none; fill: rgb(228,197,144); fill-rule: nonzero; opacity: 1; white-space: pre;" d="M-249.30-33.58L-249.30-33.58L-249.30 22.07Q-249.30 30.02-248.85 33.17L-248.85 33.17L-248.25 38.57L-230.55 38.57Q-225.30 38.57-217.50 37.22L-217.50 37.22Q-215.25 34.22-214.35 31.67L-214.35 31.67Q-214.20 30.47-213.23 26.50Q-212.25 22.52-212.10 21.62L-212.10 21.62L-203.85 22.37L-206.10 46.07L-207.60 47.72L-215.70 47.42Q-224.10 47.12-226.05 47.12L-226.05 47.12L-261 47.12Q-264.75 47.12-270.45 47.42L-270.45 47.42L-275.25 47.72L-276 39.92L-264.45 38.57Q-264.30 37.22-263.63 33.40Q-262.95 29.57-262.95 26.57L-262.95 26.57L-262.95-38.08Q-262.95-40.33-263.63-44.15Q-264.30-47.98-264.45-50.08L-264.45-50.08L-276-51.43L-275.25-59.38L-270.45-58.93Q-264.75-58.63-258.15-58.63Q-251.55-58.63-245.40-59.23L-245.40-59.23L-237.45-59.83L-236.55-50.98L-248.25-50.08L-248.85-44.68Q-249.30-41.53-249.30-33.58ZM-145.50-2.98L-150.45-3.43L-157.50-3.88L-165.45-3.88Q-166.95-3.88-171.75-3.58L-171.75-3.58L-171.75 22.07Q-171.75 32.27-170.85 38.57L-170.85 38.57L-149.25 38.57Q-143.10 38.57-136.20 37.37L-136.20 37.37Q-134.10 34.52-133.05 31.67L-133.05 31.67Q-132.90 30.47-131.93 26.50Q-130.95 22.52-130.80 21.62L-130.80 21.62L-122.55 22.37L-124.80 46.07L-126.30 47.72L-134.40 47.42Q-142.80 47.12-144.75 47.12L-144.75 47.12L-180.60 47.12Q-185.70 47.12-191.40 47.87L-191.40 47.87L-197.55 48.47L-198.60 39.92L-187.05 38.57Q-186.90 37.22-186.23 33.40Q-185.55 29.57-185.55 26.57L-185.55 26.57L-185.55-38.08Q-185.55-40.33-186.23-44.15Q-186.90-47.98-187.05-50.08L-187.05-50.08L-198.60-51.88L-197.85-59.38L-193.65-58.93Q-188.85-58.63-185.10-58.63L-185.10-58.63L-146.70-58.63Q-142.80-58.63-128.25-60.13L-128.25-60.13L-126.75-58.48L-125.70-37.03L-134.40-36.28Q-135.60-42.73-136.20-44.68Q-136.80-46.63-139.05-49.48L-139.05-49.48Q-144.75-50.23-151.20-50.23L-151.20-50.23L-170.85-50.23Q-171.75-44.23-171.75-33.58L-171.75-33.58L-171.75-11.98Q-166.65-11.68-165.45-11.68L-165.45-11.68L-154.50-11.68Q-150.90-11.68-145.50-13.03L-145.50-13.03L-144.15-22.93L-137.25-22.18Q-137.40-20.38-137.40-17.23L-137.40-17.23L-137.40-10.18Q-137.40-2.38-137.25 0.77L-137.25 0.77L-136.95 6.17L-144.15 7.07L-145.50-2.98ZM-3.15 21.92L6.00 21.62L6.90 44.27Q-14.70 49.37-27.45 49.37L-27.45 49.37Q-51.75 49.37-64.65 34.52Q-77.55 19.67-77.55-5.60Q-77.55-30.88-64.65-45.88Q-51.75-60.88-27.45-60.88L-27.45-60.88Q-15.30-60.88-3.30-57.88L-3.30-57.88Q4.20-56.08 5.55-55.78L5.55-55.78L3.90-33.58L-5.25-34.18L-5.25-41.23Q-5.25-43.63-7.05-48.73L-7.05-48.73Q-18.45-52.18-27.30-52.18L-27.30-52.18Q-43.80-52.18-52.65-39.20Q-61.50-26.23-61.50-5.83Q-61.50 14.57-52.65 27.62Q-43.80 40.67-27.30 40.67L-27.30 40.67Q-17.10 40.67-5.70 37.37L-5.70 37.37Q-3.45 30.92-3.30 28.90Q-3.15 26.87-3.15 24.92L-3.15 24.92L-3.15 21.92ZM29.85 22.97L58.95-58.63L67.05-60.28L83.55-17.38Q87.15-8.23 91.35 3.02L91.35 3.02Q100.35 26.72 100.95 27.92L100.95 27.92Q102.15 31.52 106.65 39.02L106.65 39.02L114.30 39.77L113.85 47.72L103.50 47.42Q92.40 47.12 89.55 47.12Q86.70 47.12 82.80 47.42L82.80 47.42L79.20 47.72L78.45 39.77L89.10 38.72Q88.05 31.37 86.85 27.77L86.85 27.77L80.85 12.17L43.50 12.62L37.35 29.87Q36.30 34.52 35.70 38.57L35.70 38.57L35.85 38.57L47.55 39.77L46.65 47.72L37.35 47.42Q26.85 47.12 23.17 47.12Q19.50 47.12 16.20 47.42L16.20 47.42L13.35 47.72L12.90 39.92L21.45 38.72Q29.70 23.57 29.85 22.97L29.85 22.97ZM61.50-38.23L46.35 4.52Q54.45 4.82 57.90 4.82Q61.35 4.82 68.02 4.60Q74.70 4.37 77.85 4.37L77.85 4.37L61.50-38.23ZM172.65-1.48L167.70-1.93L160.65-2.38L152.70-2.38Q151.50-2.38 146.40-2.08L146.40-2.08L146.40 22.07Q146.40 30.32 147.75 37.82L147.75 37.82L162.15 38.87L161.40 47.72L153.30 47.42Q144.00 47.12 138.22 47.12Q132.45 47.12 126.75 47.87L126.75 47.87L120.60 48.47L119.55 39.92L131.10 38.57Q131.25 37.22 131.92 33.40Q132.60 29.57 132.60 26.57L132.60 26.57L132.60-38.08Q132.60-40.33 131.92-44.15Q131.25-47.98 131.10-50.08L131.10-50.08L119.55-51.88L120.30-59.38L124.50-58.93Q129.30-58.63 133.05-58.63L133.05-58.63L171.45-58.63Q175.35-58.63 189.90-60.13L189.90-60.13L191.40-58.48L192.45-37.03L183.75-36.28Q182.55-42.73 181.95-44.68Q181.35-46.63 179.10-49.48L179.10-49.48Q173.40-50.23 166.95-50.23L166.95-50.23L147.30-50.23Q146.40-43.63 146.40-33.58L146.40-33.58L146.40-10.48Q151.50-10.18 152.70-10.18L152.70-10.18L163.65-10.18Q167.25-10.18 172.65-11.53L172.65-11.53L174.00-21.43L180.90-20.68Q180.75-18.88 180.75-15.73L180.75-15.73L180.75-8.68Q180.75-0.88 180.90 2.27L180.90 2.27L181.20 7.67L174.00 8.57L172.65-1.48ZM253.80-2.98L248.85-3.43L241.80-3.88L233.85-3.88Q232.35-3.88 227.55-3.58L227.55-3.58L227.55 22.07Q227.55 32.27 228.45 38.57L228.45 38.57L250.05 38.57Q256.20 38.57 263.10 37.37L263.10 37.37Q265.20 34.52 266.25 31.67L266.25 31.67Q266.40 30.47 267.37 26.50Q268.35 22.52 268.50 21.62L268.50 21.62L276.75 22.37L274.50 46.07L273.00 47.72L264.90 47.42Q256.50 47.12 254.55 47.12L254.55 47.12L218.70 47.12Q213.60 47.12 207.90 47.87L207.90 47.87L201.75 48.47L200.70 39.92L212.25 38.57Q212.40 37.22 213.07 33.40Q213.75 29.57 213.75 26.57L213.75 26.57L213.75-38.08Q213.75-40.33 213.07-44.15Q212.40-47.98 212.25-50.08L212.25-50.08L200.70-51.88L201.45-59.38L205.65-58.93Q210.45-58.63 214.20-58.63L214.20-58.63L252.60-58.63Q256.50-58.63 271.05-60.13L271.05-60.13L272.55-58.48L273.60-37.03L264.90-36.28Q263.70-42.73 263.10-44.68Q262.50-46.63 260.25-49.48L260.25-49.48Q254.55-50.23 248.10-50.23L248.10-50.23L228.45-50.23Q227.55-44.23 227.55-33.58L227.55-33.58L227.55-11.98Q232.65-11.68 233.85-11.68L233.85-11.68L244.80-11.68Q248.40-11.68 253.80-13.03L253.80-13.03L255.15-22.93L262.05-22.18Q261.90-20.38 261.90-17.23L261.90-17.23L261.90-10.18Q261.90-2.38 262.05 0.77L262.05 0.77L262.35 6.17L255.15 7.07L253.80-2.98Z"/></g>
</svg>