<svg xmlns="http://www.w3.org/2000/svg" xmlns:xlink="http://www.w3.org/1999/xlink" version="1.1" width="1000" height="1000" viewBox="0 0 1000 1000" xml:space="preserve">
<desc>Created with Fabric.js 3.5.0</desc>
<defs>
</defs>
<rect x="0" y="0" width="100%" height="100%" fill="#ffffff"/>
<g transform="matrix(5.6818 0 0 5.6818 499.9985 499.9995)" id="75955">
<g style="" vector-effect="non-scaling-stroke">
		<g transform="matrix(1 0 0 1 -23.305 15.61)">
<path style="stroke: none; stroke-width: 1; stroke-dasharray: none; stroke-linecap: butt; stroke-dashoffset: 0; stroke-linejoin: miter; stroke-miterlimit: 4; is-custom-font: none; font-file-url: none; fill: rgb(228,197,144); fill-rule: nonzero; opacity: 1;" transform=" translate(-56.695, -40.61)" d="M 54 44.46 V 36.76 H 56.651 C 57.2597 36.76 57.7583 36.8627 58.147 37.068 C 58.543 37.2733 58.8363 37.552 59.027 37.904 C 59.2177 38.2487 59.313 38.6337 59.313 39.059 C 59.313 39.5357 59.1847 39.9683 58.928 40.357 C 58.6787 40.7457 58.2863 41.0243 57.751 41.193 L 59.39 44.46 H 58.037 L 56.541 41.358 H 55.166 V 44.46 H 54 Z M 55.166 40.478 H 56.585 C 57.113 40.478 57.498 40.3497 57.74 40.093 C 57.9893 39.8363 58.114 39.5027 58.114 39.092 C 58.114 38.6813 57.993 38.355 57.751 38.113 C 57.509 37.8637 57.1167 37.739 56.574 37.739 H 55.166 V 40.478 Z" stroke-linecap="round"/>
</g>
		<g transform="matrix(1 0 0 1 -12.9001 15.61)">
<path style="stroke: none; stroke-width: 1; stroke-dasharray: none; stroke-linecap: butt; stroke-dashoffset: 0; stroke-linejoin: miter; stroke-miterlimit: 4; is-custom-font: none; font-file-url: none; fill: rgb(228,197,144); fill-rule: nonzero; opacity: 1;" transform=" translate(-67.0999, -40.61)" d="M 64.6524 44.46 V 36.76 H 69.5474 V 37.706 H 65.8184 V 40.104 H 69.2174 V 41.028 H 65.8184 V 43.514 H 69.5474 V 44.46 H 64.6524 Z" stroke-linecap="round"/>
</g>
		<g transform="matrix(1 0 0 1 -2.6614 15.61)">
<path style="stroke: none; stroke-width: 1; stroke-dasharray: none; stroke-linecap: butt; stroke-dashoffset: 0; stroke-linejoin: miter; stroke-miterlimit: 4; is-custom-font: none; font-file-url: none; fill: rgb(228,197,144); fill-rule: nonzero; opacity: 1;" transform=" translate(-77.3386, -40.61)" d="M 77.4376 44.592 C 76.8729 44.592 76.3779 44.493 75.9526 44.295 C 75.5272 44.097 75.1936 43.8147 74.9516 43.448 C 74.7169 43.0813 74.5959 42.645 74.5886 42.139 H 75.8206 C 75.8279 42.5497 75.9709 42.898 76.2496 43.184 C 76.5282 43.47 76.9206 43.613 77.4266 43.613 C 77.8739 43.613 78.2222 43.5067 78.4716 43.294 C 78.7282 43.074 78.8566 42.7953 78.8566 42.458 C 78.8566 42.1867 78.7942 41.9667 78.6696 41.798 C 78.5522 41.6293 78.3872 41.49 78.1746 41.38 C 77.9692 41.27 77.7309 41.171 77.4596 41.083 C 77.1882 40.995 76.9022 40.8997 76.6016 40.797 C 76.0076 40.599 75.5602 40.3423 75.2596 40.027 C 74.9662 39.7117 74.8196 39.2973 74.8196 38.784 C 74.8122 38.3513 74.9112 37.9737 75.1166 37.651 C 75.3292 37.3283 75.6226 37.079 75.9966 36.903 C 76.3779 36.7197 76.8216 36.628 77.3276 36.628 C 77.8262 36.628 78.2626 36.7197 78.6366 36.903 C 79.0179 37.0863 79.3149 37.343 79.5276 37.673 C 79.7402 37.9957 79.8502 38.3733 79.8576 38.806 H 78.6256 C 78.6256 38.608 78.5742 38.421 78.4716 38.245 C 78.3689 38.0617 78.2186 37.9113 78.0206 37.794 C 77.8226 37.6767 77.5806 37.618 77.2946 37.618 C 76.9279 37.6107 76.6236 37.7023 76.3816 37.893 C 76.1469 38.0837 76.0296 38.3477 76.0296 38.685 C 76.0296 38.9857 76.1176 39.2167 76.2936 39.378 C 76.4696 39.5393 76.7116 39.675 77.0196 39.785 C 77.3276 39.8877 77.6796 40.0087 78.0756 40.148 C 78.4569 40.2727 78.7979 40.423 79.0986 40.599 C 79.3992 40.775 79.6376 41.006 79.8136 41.292 C 79.9969 41.578 80.0886 41.941 80.0886 42.381 C 80.0886 42.7697 79.9896 43.1327 79.7916 43.47 C 79.5936 43.8 79.2966 44.0713 78.9006 44.284 C 78.5046 44.4893 78.0169 44.592 77.4376 44.592 Z" stroke-linecap="round"/>
</g>
		<g transform="matrix(1 0 0 1 7.5652 15.61)">
<path style="stroke: none; stroke-width: 1; stroke-dasharray: none; stroke-linecap: butt; stroke-dashoffset: 0; stroke-linejoin: miter; stroke-miterlimit: 4; is-custom-font: none; font-file-url: none; fill: rgb(228,197,144); fill-rule: nonzero; opacity: 1;" transform=" translate(-87.5652, -40.61)" d="M 86.9877 44.46 V 37.706 H 84.7107 V 36.76 H 90.4197 V 37.706 H 88.1537 V 44.46 H 86.9877 Z" stroke-linecap="round"/>
</g>
		<g transform="matrix(1 0 0 1 17.603 15.61)">
<path style="stroke: none; stroke-width: 1; stroke-dasharray: none; stroke-linecap: butt; stroke-dashoffset: 0; stroke-linejoin: miter; stroke-miterlimit: 4; is-custom-font: none; font-file-url: none; fill: rgb(228,197,144); fill-rule: nonzero; opacity: 1;" transform=" translate(-97.603, -40.61)" d="M 94.138 44.46 L 96.976 36.76 H 98.252 L 101.068 44.46 H 99.836 L 99.176 42.579 H 96.03 L 95.37 44.46 H 94.138 Z M 96.36 41.655 H 98.846 L 97.603 38.146 L 96.36 41.655 Z" stroke-linecap="round"/>
</g>
		<g transform="matrix(1 0 0 1 28.6675 15.676)">
<path style="stroke: none; stroke-width: 1; stroke-dasharray: none; stroke-linecap: butt; stroke-dashoffset: 0; stroke-linejoin: miter; stroke-miterlimit: 4; is-custom-font: none; font-file-url: none; fill: rgb(228,197,144); fill-rule: nonzero; opacity: 1;" transform=" translate(-108.6675, -40.676)" d="M 108.651 44.592 C 108.101 44.592 107.602 44.4857 107.155 44.273 C 106.715 44.053 106.363 43.7193 106.099 43.272 C 105.842 42.8247 105.714 42.2563 105.714 41.567 V 36.76 H 106.88 V 41.578 C 106.88 42.2527 107.041 42.7477 107.364 43.063 C 107.686 43.3783 108.123 43.536 108.673 43.536 C 109.215 43.536 109.648 43.3783 109.971 43.063 C 110.293 42.7477 110.455 42.2527 110.455 41.578 V 36.76 H 111.621 V 41.567 C 111.621 42.2563 111.485 42.8247 111.214 43.272 C 110.95 43.7193 110.59 44.053 110.136 44.273 C 109.688 44.4857 109.193 44.592 108.651 44.592 Z" stroke-linecap="round"/>
</g>
		<g transform="matrix(1 0 0 1 39.771 15.61)">
<path style="stroke: none; stroke-width: 1; stroke-dasharray: none; stroke-linecap: butt; stroke-dashoffset: 0; stroke-linejoin: miter; stroke-miterlimit: 4; is-custom-font: none; font-file-url: none; fill: rgb(228,197,144); fill-rule: nonzero; opacity: 1;" transform=" translate(-119.771, -40.61)" d="M 117.076 44.46 V 36.76 H 119.727 C 120.336 36.76 120.835 36.8627 121.223 37.068 C 121.619 37.2733 121.913 37.552 122.103 37.904 C 122.294 38.2487 122.389 38.6337 122.389 39.059 C 122.389 39.5357 122.261 39.9683 122.004 40.357 C 121.755 40.7457 121.363 41.0243 120.827 41.193 L 122.466 44.46 H 121.113 L 119.617 41.358 H 118.242 V 44.46 H 117.076 Z M 118.242 40.478 H 119.661 C 120.189 40.478 120.574 40.3497 120.816 40.093 C 121.066 39.8363 121.19 39.5027 121.19 39.092 C 121.19 38.6813 121.069 38.355 120.827 38.113 C 120.585 37.8637 120.193 37.739 119.65 37.739 H 118.242 V 40.478 Z" stroke-linecap="round"/>
</g>
		<g transform="matrix(1 0 0 1 50.699 15.61)">
<path style="stroke: none; stroke-width: 1; stroke-dasharray: none; stroke-linecap: butt; stroke-dashoffset: 0; stroke-linejoin: miter; stroke-miterlimit: 4; is-custom-font: none; font-file-url: none; fill: rgb(228,197,144); fill-rule: nonzero; opacity: 1;" transform=" translate(-130.699, -40.61)" d="M 127.234 44.46 L 130.072 36.76 H 131.348 L 134.164 44.46 H 132.932 L 132.272 42.579 H 129.126 L 128.466 44.46 H 127.234 Z M 129.456 41.655 H 131.942 L 130.699 38.146 L 129.456 41.655 Z" stroke-linecap="round"/>
</g>
		<g transform="matrix(1 0 0 1 62.2945 15.61)">
<path style="stroke: none; stroke-width: 1; stroke-dasharray: none; stroke-linecap: butt; stroke-dashoffset: 0; stroke-linejoin: miter; stroke-miterlimit: 4; is-custom-font: none; font-file-url: none; fill: rgb(228,197,144); fill-rule: nonzero; opacity: 1;" transform=" translate(-142.2945, -40.61)" d="M 139.198 44.46 V 36.76 H 140.364 L 144.225 42.557 V 36.76 H 145.391 V 44.46 H 144.225 L 140.364 38.663 V 44.46 H 139.198 Z" stroke-linecap="round"/>
</g>
		<g transform="matrix(1 0 0 1 73.2945 15.61)">
<path style="stroke: none; stroke-width: 1; stroke-dasharray: none; stroke-linecap: butt; stroke-dashoffset: 0; stroke-linejoin: miter; stroke-miterlimit: 4; is-custom-font: none; font-file-url: none; fill: rgb(228,197,144); fill-rule: nonzero; opacity: 1;" transform=" translate(-153.2945, -40.61)" d="M 152.717 44.46 V 37.706 H 150.44 V 36.76 H 156.149 V 37.706 H 153.883 V 44.46 H 152.717 Z" stroke-linecap="round"/>
</g>
		<g transform="matrix(1 0 0 1 -14.961 -6.08)">
<path style="stroke: none; stroke-width: 1; stroke-dasharray: none; stroke-linecap: butt; stroke-dashoffset: 0; stroke-linejoin: miter; stroke-miterlimit: 4; is-custom-font: none; font-file-url: none; fill: rgb(255,255,255); fill-rule: nonzero; opacity: 1;" transform=" translate(-65.039, -18.92)" d="M 70.644 18.236 H 76.078 V 18.616 H 75.888 C 75.6853 18.616 75.508 18.692 75.356 18.844 C 75.204 18.9707 75.0773 19.1353 74.976 19.338 C 74.8747 19.5407 74.786 19.756 74.71 19.984 C 74.6593 20.212 74.634 20.4147 74.634 20.592 V 30.776 C 74.178 30.9533 73.6587 31.1053 73.076 31.232 C 72.4933 31.3587 71.8853 31.46 71.252 31.536 C 70.6187 31.6373 69.9727 31.7133 69.314 31.764 C 68.6553 31.8147 68.0473 31.84 67.49 31.84 C 65.21 31.84 63.2213 31.46 61.524 30.7 C 59.8267 29.94 58.4207 28.952 57.306 27.736 C 56.1913 26.4947 55.3553 25.1013 54.798 23.556 C 54.266 22.0107 54 20.4527 54 18.882 C 54 17.3113 54.266 15.7533 54.798 14.208 C 55.3553 12.6627 56.1913 11.282 57.306 10.066 C 58.446 8.85 59.8647 7.87467 61.562 7.14 C 63.2847 6.38 65.324 6 67.68 6 C 68.5667 6 69.39 6.076 70.15 6.228 C 70.91 6.38 71.5813 6.51933 72.164 6.646 C 72.4933 6.722 72.772 6.798 73 6.874 C 73.2533 6.92467 73.4687 6.95 73.646 6.95 H 73.988 V 10.978 H 73.608 C 73.456 10.1927 73.152 9.55933 72.696 9.078 C 72.2653 8.59667 71.7587 8.22933 71.176 7.976 C 70.5933 7.72267 69.9727 7.558 69.314 7.482 C 68.6807 7.38067 68.0853 7.33 67.528 7.33 C 65.628 7.33 63.9813 7.672 62.588 8.356 C 61.1947 9.01467 60.0547 9.876 59.168 10.94 C 58.2813 12.004 57.6227 13.2073 57.192 14.55 C 56.7613 15.8673 56.546 17.1847 56.546 18.502 C 56.546 19.9713 56.8247 21.428 57.382 22.872 C 57.9393 24.2907 58.7247 25.57 59.738 26.71 C 60.7513 27.8247 61.9673 28.7367 63.386 29.446 C 64.83 30.13 66.426 30.472 68.174 30.472 C 68.6553 30.472 69.2507 30.4213 69.96 30.32 C 70.6693 30.1933 71.3787 29.9273 72.088 29.522 V 20.592 C 72.088 20.4147 72.0627 20.212 72.012 19.984 C 71.9613 19.756 71.8727 19.5407 71.746 19.338 C 71.6447 19.1353 71.518 18.9707 71.366 18.844 C 71.214 18.692 71.0367 18.616 70.834 18.616 H 70.644 V 18.236 Z" stroke-linecap="round"/>
</g>
		<g transform="matrix(1 0 0 1 9.5386 -6.08)">
<path style="stroke: none; stroke-width: 1; stroke-dasharray: none; stroke-linecap: butt; stroke-dashoffset: 0; stroke-linejoin: miter; stroke-miterlimit: 4; is-custom-font: none; font-file-url: none; fill: rgb(255,255,255); fill-rule: nonzero; opacity: 1;" transform=" translate(-89.5386, -18.92)" d="M 85.5866 31.08 H 85.7766 V 31.46 H 80.4186 V 31.08 H 80.6086 C 80.7859 31.08 80.9506 31.004 81.1026 30.852 C 81.2546 30.7 81.3813 30.5227 81.4826 30.32 C 81.6093 30.1173 81.6979 29.902 81.7486 29.674 C 81.7993 29.4207 81.8246 29.1927 81.8246 28.99 V 8.736 C 81.8246 8.55867 81.7993 8.356 81.7486 8.128 C 81.6979 7.9 81.6093 7.68467 81.4826 7.482 C 81.3813 7.27933 81.2546 7.11467 81.1026 6.988 C 80.9506 6.836 80.7859 6.76 80.6086 6.76 H 80.4186 V 6.38 H 87.0306 C 89.5639 6.38 91.5146 6.874 92.8826 7.862 C 94.2759 8.85 94.9726 10.3067 94.9726 12.232 C 94.9726 13.1947 94.8079 14.0433 94.4786 14.778 C 94.1746 15.4873 93.7566 16.108 93.2246 16.64 C 92.6926 17.1467 92.0593 17.5647 91.3246 17.894 C 90.6153 18.198 89.8553 18.426 89.0446 18.578 L 91.7806 22.758 C 92.4393 23.7713 93.1106 24.772 93.7946 25.76 C 94.4786 26.7227 95.1499 27.7233 95.8086 28.762 C 95.9859 29.0153 96.1759 29.2813 96.3786 29.56 C 96.6066 29.8387 96.8346 30.092 97.0626 30.32 C 97.3159 30.548 97.5693 30.738 97.8226 30.89 C 98.1013 31.0167 98.3799 31.08 98.6586 31.08 V 31.46 H 97.0246 C 96.0113 31.46 95.1753 31.2193 94.5166 30.738 C 93.8833 30.2313 93.3513 29.6487 92.9206 28.99 C 91.7806 27.318 90.6406 25.6207 89.5006 23.898 C 88.3859 22.1753 87.2713 20.478 86.1566 18.806 C 85.8779 18.7807 85.5739 18.7553 85.2446 18.73 C 84.9406 18.6793 84.6493 18.6287 84.3706 18.578 V 28.99 C 84.3706 29.1927 84.3959 29.4207 84.4466 29.674 C 84.4973 29.902 84.5733 30.1173 84.6746 30.32 C 84.8013 30.5227 84.9279 30.7 85.0546 30.852 C 85.2066 31.004 85.3839 31.08 85.5866 31.08 Z M 84.3706 7.672 V 17.324 H 84.5606 C 84.7633 17.3493 85.0799 17.3747 85.5106 17.4 C 85.9666 17.4 86.5239 17.4 87.1826 17.4 C 87.7146 17.4 88.2719 17.324 88.8546 17.172 C 89.4626 16.9947 90.0199 16.716 90.5266 16.336 C 91.0586 15.9307 91.4893 15.4113 91.8186 14.778 C 92.1733 14.1447 92.3506 13.3467 92.3506 12.384 C 92.3506 11.4213 92.1606 10.636 91.7806 10.028 C 91.4259 9.42 90.9193 8.93867 90.2606 8.584 C 89.6273 8.22933 88.8546 7.98867 87.9426 7.862 C 87.0306 7.73533 86.0299 7.672 84.9406 7.672 H 84.3706 Z" stroke-linecap="round"/>
</g>
		<g transform="matrix(1 0 0 1 24.949 -6.08)">
<path style="stroke: none; stroke-width: 1; stroke-dasharray: none; stroke-linecap: butt; stroke-dashoffset: 0; stroke-linejoin: miter; stroke-miterlimit: 4; is-custom-font: none; font-file-url: none; fill: rgb(255,255,255); fill-rule: nonzero; opacity: 1;" transform=" translate(-104.949, -18.92)" d="M 102.232 6.38 H 107.666 V 6.76 H 107.476 C 107.299 6.76 107.134 6.836 106.982 6.988 C 106.83 7.11467 106.703 7.27933 106.602 7.482 C 106.501 7.65933 106.412 7.87467 106.336 8.128 C 106.285 8.356 106.26 8.55867 106.26 8.736 V 28.99 C 106.26 29.1927 106.285 29.4207 106.336 29.674 C 106.387 29.902 106.463 30.1173 106.564 30.32 C 106.691 30.5227 106.817 30.7 106.944 30.852 C 107.096 31.004 107.273 31.08 107.476 31.08 H 107.666 V 31.46 H 102.232 V 31.08 H 102.422 C 102.625 31.08 102.802 31.0167 102.954 30.89 C 103.106 30.738 103.233 30.5607 103.334 30.358 C 103.461 30.13 103.549 29.902 103.6 29.674 C 103.651 29.4207 103.676 29.1927 103.676 28.99 V 8.736 C 103.676 8.55867 103.651 8.356 103.6 8.128 C 103.549 7.9 103.461 7.68467 103.334 7.482 C 103.233 7.27933 103.106 7.11467 102.954 6.988 C 102.802 6.836 102.625 6.76 102.422 6.76 H 102.232 V 6.38 Z" stroke-linecap="round"/>
</g>
		<g transform="matrix(1 0 0 1 40.25 -6.08)">
<path style="stroke: none; stroke-width: 1; stroke-dasharray: none; stroke-linecap: butt; stroke-dashoffset: 0; stroke-linejoin: miter; stroke-miterlimit: 4; is-custom-font: none; font-file-url: none; fill: rgb(255,255,255); fill-rule: nonzero; opacity: 1;" transform=" translate(-120.25, -18.92)" d="M 112.46 31.08 H 112.65 C 112.853 31.08 113.03 31.0167 113.182 30.89 C 113.334 30.738 113.461 30.5607 113.562 30.358 C 113.689 30.1553 113.778 29.94 113.828 29.712 C 113.904 29.484 113.942 29.2687 113.942 29.066 V 8.736 C 113.942 8.55867 113.904 8.356 113.828 8.128 C 113.778 7.9 113.689 7.68467 113.562 7.482 C 113.461 7.27933 113.334 7.11467 113.182 6.988 C 113.03 6.836 112.853 6.76 112.65 6.76 H 112.46 V 6.38 H 117.932 V 6.76 H 117.742 C 117.54 6.76 117.362 6.836 117.21 6.988 C 117.058 7.11467 116.932 7.27933 116.83 7.482 C 116.729 7.68467 116.64 7.9 116.564 8.128 C 116.514 8.356 116.488 8.55867 116.488 8.736 V 30.054 H 124.81 C 125.292 30.054 125.71 29.94 126.064 29.712 C 126.419 29.484 126.71 29.2053 126.938 28.876 C 127.192 28.5213 127.369 28.154 127.47 27.774 C 127.597 27.3687 127.66 27.0013 127.66 26.672 H 128.04 V 31.46 H 112.46 V 31.08 Z" stroke-linecap="round"/>
</g>
		<g transform="matrix(1 0 0 1 59.054 -6.08)">
<path style="stroke: none; stroke-width: 1; stroke-dasharray: none; stroke-linecap: butt; stroke-dashoffset: 0; stroke-linejoin: miter; stroke-miterlimit: 4; is-custom-font: none; font-file-url: none; fill: rgb(255,255,255); fill-rule: nonzero; opacity: 1;" transform=" translate(-139.054, -18.92)" d="M 131.264 31.08 H 131.454 C 131.657 31.08 131.834 31.0167 131.986 30.89 C 132.138 30.738 132.265 30.5607 132.366 30.358 C 132.493 30.1553 132.582 29.94 132.632 29.712 C 132.708 29.484 132.746 29.2687 132.746 29.066 V 8.736 C 132.746 8.55867 132.708 8.356 132.632 8.128 C 132.582 7.9 132.493 7.68467 132.366 7.482 C 132.265 7.27933 132.138 7.11467 131.986 6.988 C 131.834 6.836 131.657 6.76 131.454 6.76 H 131.264 V 6.38 H 136.736 V 6.76 H 136.546 C 136.344 6.76 136.166 6.836 136.014 6.988 C 135.862 7.11467 135.736 7.27933 135.634 7.482 C 135.533 7.68467 135.444 7.9 135.368 8.128 C 135.318 8.356 135.292 8.55867 135.292 8.736 V 30.054 H 143.614 C 144.096 30.054 144.514 29.94 144.868 29.712 C 145.223 29.484 145.514 29.2053 145.742 28.876 C 145.996 28.5213 146.173 28.154 146.274 27.774 C 146.401 27.3687 146.464 27.0013 146.464 26.672 H 146.844 V 31.46 H 131.264 V 31.08 Z" stroke-linecap="round"/>
</g>
		<g transform="matrix(1 0 0 1 72.937 -6.08)">
<path style="stroke: none; stroke-width: 1; stroke-dasharray: none; stroke-linecap: butt; stroke-dashoffset: 0; stroke-linejoin: miter; stroke-miterlimit: 4; is-custom-font: none; font-file-url: none; fill: rgb(255,255,255); fill-rule: nonzero; opacity: 1;" transform=" translate(-152.937, -18.92)" d="M 150.22 6.38 H 155.654 V 6.76 H 155.464 C 155.287 6.76 155.122 6.836 154.97 6.988 C 154.818 7.11467 154.692 7.27933 154.59 7.482 C 154.489 7.65933 154.4 7.87467 154.324 8.128 C 154.274 8.356 154.248 8.55867 154.248 8.736 V 28.99 C 154.248 29.1927 154.274 29.4207 154.324 29.674 C 154.375 29.902 154.451 30.1173 154.552 30.32 C 154.679 30.5227 154.806 30.7 154.932 30.852 C 155.084 31.004 155.262 31.08 155.464 31.08 H 155.654 V 31.46 H 150.22 V 31.08 H 150.41 C 150.613 31.08 150.79 31.0167 150.942 30.89 C 151.094 30.738 151.221 30.5607 151.322 30.358 C 151.449 30.13 151.538 29.902 151.588 29.674 C 151.639 29.4207 151.664 29.1927 151.664 28.99 V 8.736 C 151.664 8.55867 151.639 8.356 151.588 8.128 C 151.538 7.9 151.449 7.68467 151.322 7.482 C 151.221 7.27933 151.094 7.11467 150.942 6.988 C 150.79 6.836 150.613 6.76 150.41 6.76 H 150.22 V 6.38 Z" stroke-linecap="round"/>
</g>
		<g transform="matrix(1 0 0 1 -14.961 -6.08)">
<path style="stroke: rgb(255,255,255); stroke-width: 1; stroke-dasharray: none; stroke-linecap: butt; stroke-dashoffset: 0; stroke-linejoin: miter; stroke-miterlimit: 4; is-custom-font: none; font-file-url: none; fill: none; fill-rule: nonzero; opacity: 1;" transform=" translate(-65.039, -18.92)" d="M 70.644 18.236 H 76.078 V 18.616 H 75.888 C 75.6853 18.616 75.508 18.692 75.356 18.844 C 75.204 18.9707 75.0773 19.1353 74.976 19.338 C 74.8747 19.5407 74.786 19.756 74.71 19.984 C 74.6593 20.212 74.634 20.4147 74.634 20.592 V 30.776 C 74.178 30.9533 73.6587 31.1053 73.076 31.232 C 72.4933 31.3587 71.8853 31.46 71.252 31.536 C 70.6187 31.6373 69.9727 31.7133 69.314 31.764 C 68.6553 31.8147 68.0473 31.84 67.49 31.84 C 65.21 31.84 63.2213 31.46 61.524 30.7 C 59.8267 29.94 58.4207 28.952 57.306 27.736 C 56.1913 26.4947 55.3553 25.1013 54.798 23.556 C 54.266 22.0107 54 20.4527 54 18.882 C 54 17.3113 54.266 15.7533 54.798 14.208 C 55.3553 12.6627 56.1913 11.282 57.306 10.066 C 58.446 8.85 59.8647 7.87467 61.562 7.14 C 63.2847 6.38 65.324 6 67.68 6 C 68.5667 6 69.39 6.076 70.15 6.228 C 70.91 6.38 71.5813 6.51933 72.164 6.646 C 72.4933 6.722 72.772 6.798 73 6.874 C 73.2533 6.92467 73.4687 6.95 73.646 6.95 H 73.988 V 10.978 H 73.608 C 73.456 10.1927 73.152 9.55933 72.696 9.078 C 72.2653 8.59667 71.7587 8.22933 71.176 7.976 C 70.5933 7.72267 69.9727 7.558 69.314 7.482 C 68.6807 7.38067 68.0853 7.33 67.528 7.33 C 65.628 7.33 63.9813 7.672 62.588 8.356 C 61.1947 9.01467 60.0547 9.876 59.168 10.94 C 58.2813 12.004 57.6227 13.2073 57.192 14.55 C 56.7613 15.8673 56.546 17.1847 56.546 18.502 C 56.546 19.9713 56.8247 21.428 57.382 22.872 C 57.9393 24.2907 58.7247 25.57 59.738 26.71 C 60.7513 27.8247 61.9673 28.7367 63.386 29.446 C 64.83 30.13 66.426 30.472 68.174 30.472 C 68.6553 30.472 69.2507 30.4213 69.96 30.32 C 70.6693 30.1933 71.3787 29.9273 72.088 29.522 V 20.592 C 72.088 20.4147 72.0627 20.212 72.012 19.984 C 71.9613 19.756 71.8727 19.5407 71.746 19.338 C 71.6447 19.1353 71.518 18.9707 71.366 18.844 C 71.214 18.692 71.0367 18.616 70.834 18.616 H 70.644 V 18.236 Z" stroke-linecap="round"/>
</g>
		<g transform="matrix(1 0 0 1 9.5386 -6.08)">
<path style="stroke: rgb(255,255,255); stroke-width: 1; stroke-dasharray: none; stroke-linecap: butt; stroke-dashoffset: 0; stroke-linejoin: miter; stroke-miterlimit: 4; is-custom-font: none; font-file-url: none; fill: none; fill-rule: nonzero; opacity: 1;" transform=" translate(-89.5386, -18.92)" d="M 85.5866 31.08 H 85.7766 V 31.46 H 80.4186 V 31.08 H 80.6086 C 80.7859 31.08 80.9506 31.004 81.1026 30.852 C 81.2546 30.7 81.3813 30.5227 81.4826 30.32 C 81.6093 30.1173 81.6979 29.902 81.7486 29.674 C 81.7993 29.4207 81.8246 29.1927 81.8246 28.99 V 8.736 C 81.8246 8.55867 81.7993 8.356 81.7486 8.128 C 81.6979 7.9 81.6093 7.68467 81.4826 7.482 C 81.3813 7.27933 81.2546 7.11467 81.1026 6.988 C 80.9506 6.836 80.7859 6.76 80.6086 6.76 H 80.4186 V 6.38 H 87.0306 C 89.5639 6.38 91.5146 6.874 92.8826 7.862 C 94.2759 8.85 94.9726 10.3067 94.9726 12.232 C 94.9726 13.1947 94.8079 14.0433 94.4786 14.778 C 94.1746 15.4873 93.7566 16.108 93.2246 16.64 C 92.6926 17.1467 92.0593 17.5647 91.3246 17.894 C 90.6153 18.198 89.8553 18.426 89.0446 18.578 L 91.7806 22.758 C 92.4393 23.7713 93.1106 24.772 93.7946 25.76 C 94.4786 26.7227 95.1499 27.7233 95.8086 28.762 C 95.9859 29.0153 96.1759 29.2813 96.3786 29.56 C 96.6066 29.8387 96.8346 30.092 97.0626 30.32 C 97.3159 30.548 97.5693 30.738 97.8226 30.89 C 98.1013 31.0167 98.3799 31.08 98.6586 31.08 V 31.46 H 97.0246 C 96.0113 31.46 95.1753 31.2193 94.5166 30.738 C 93.8833 30.2313 93.3513 29.6487 92.9206 28.99 C 91.7806 27.318 90.6406 25.6207 89.5006 23.898 C 88.3859 22.1753 87.2713 20.478 86.1566 18.806 C 85.8779 18.7807 85.5739 18.7553 85.2446 18.73 C 84.9406 18.6793 84.6493 18.6287 84.3706 18.578 V 28.99 C 84.3706 29.1927 84.3959 29.4207 84.4466 29.674 C 84.4973 29.902 84.5733 30.1173 84.6746 30.32 C 84.8013 30.5227 84.9279 30.7 85.0546 30.852 C 85.2066 31.004 85.3839 31.08 85.5866 31.08 Z M 84.3706 7.672 V 17.324 H 84.5606 C 84.7633 17.3493 85.0799 17.3747 85.5106 17.4 C 85.9666 17.4 86.5239 17.4 87.1826 17.4 C 87.7146 17.4 88.2719 17.324 88.8546 17.172 C 89.4626 16.9947 90.0199 16.716 90.5266 16.336 C 91.0586 15.9307 91.4893 15.4113 91.8186 14.778 C 92.1733 14.1447 92.3506 13.3467 92.3506 12.384 C 92.3506 11.4213 92.1606 10.636 91.7806 10.028 C 91.4259 9.42 90.9193 8.93867 90.2606 8.584 C 89.6273 8.22933 88.8546 7.98867 87.9426 7.862 C 87.0306 7.73533 86.0299 7.672 84.9406 7.672 H 84.3706 Z" stroke-linecap="round"/>
</g>
		<g transform="matrix(1 0 0 1 24.949 -6.08)">
<path style="stroke: rgb(255,255,255); stroke-width: 1; stroke-dasharray: none; stroke-linecap: butt; stroke-dashoffset: 0; stroke-linejoin: miter; stroke-miterlimit: 4; is-custom-font: none; font-file-url: none; fill: none; fill-rule: nonzero; opacity: 1;" transform=" translate(-104.949, -18.92)" d="M 102.232 6.38 H 107.666 V 6.76 H 107.476 C 107.299 6.76 107.134 6.836 106.982 6.988 C 106.83 7.11467 106.703 7.27933 106.602 7.482 C 106.501 7.65933 106.412 7.87467 106.336 8.128 C 106.285 8.356 106.26 8.55867 106.26 8.736 V 28.99 C 106.26 29.1927 106.285 29.4207 106.336 29.674 C 106.387 29.902 106.463 30.1173 106.564 30.32 C 106.691 30.5227 106.817 30.7 106.944 30.852 C 107.096 31.004 107.273 31.08 107.476 31.08 H 107.666 V 31.46 H 102.232 V 31.08 H 102.422 C 102.625 31.08 102.802 31.0167 102.954 30.89 C 103.106 30.738 103.233 30.5607 103.334 30.358 C 103.461 30.13 103.549 29.902 103.6 29.674 C 103.651 29.4207 103.676 29.1927 103.676 28.99 V 8.736 C 103.676 8.55867 103.651 8.356 103.6 8.128 C 103.549 7.9 103.461 7.68467 103.334 7.482 C 103.233 7.27933 103.106 7.11467 102.954 6.988 C 102.802 6.836 102.625 6.76 102.422 6.76 H 102.232 V 6.38 Z" stroke-linecap="round"/>
</g>
		<g transform="matrix(1 0 0 1 40.25 -6.08)">
<path style="stroke: rgb(255,255,255); stroke-width: 1; stroke-dasharray: none; stroke-linecap: butt; stroke-dashoffset: 0; stroke-linejoin: miter; stroke-miterlimit: 4; is-custom-font: none; font-file-url: none; fill: none; fill-rule: nonzero; opacity: 1;" transform=" translate(-120.25, -18.92)" d="M 112.46 31.08 H 112.65 C 112.853 31.08 113.03 31.0167 113.182 30.89 C 113.334 30.738 113.461 30.5607 113.562 30.358 C 113.689 30.1553 113.778 29.94 113.828 29.712 C 113.904 29.484 113.942 29.2687 113.942 29.066 V 8.736 C 113.942 8.55867 113.904 8.356 113.828 8.128 C 113.778 7.9 113.689 7.68467 113.562 7.482 C 113.461 7.27933 113.334 7.11467 113.182 6.988 C 113.03 6.836 112.853 6.76 112.65 6.76 H 112.46 V 6.38 H 117.932 V 6.76 H 117.742 C 117.54 6.76 117.362 6.836 117.21 6.988 C 117.058 7.11467 116.932 7.27933 116.83 7.482 C 116.729 7.68467 116.64 7.9 116.564 8.128 C 116.514 8.356 116.488 8.55867 116.488 8.736 V 30.054 H 124.81 C 125.292 30.054 125.71 29.94 126.064 29.712 C 126.419 29.484 126.71 29.2053 126.938 28.876 C 127.192 28.5213 127.369 28.154 127.47 27.774 C 127.597 27.3687 127.66 27.0013 127.66 26.672 H 128.04 V 31.46 H 112.46 V 31.08 Z" stroke-linecap="round"/>
</g>
		<g transform="matrix(1 0 0 1 59.054 -6.08)">
<path style="stroke: rgb(255,255,255); stroke-width: 1; stroke-dasharray: none; stroke-linecap: butt; stroke-dashoffset: 0; stroke-linejoin: miter; stroke-miterlimit: 4; is-custom-font: none; font-file-url: none; fill: none; fill-rule: nonzero; opacity: 1;" transform=" translate(-139.054, -18.92)" d="M 131.264 31.08 H 131.454 C 131.657 31.08 131.834 31.0167 131.986 30.89 C 132.138 30.738 132.265 30.5607 132.366 30.358 C 132.493 30.1553 132.582 29.94 132.632 29.712 C 132.708 29.484 132.746 29.2687 132.746 29.066 V 8.736 C 132.746 8.55867 132.708 8.356 132.632 8.128 C 132.582 7.9 132.493 7.68467 132.366 7.482 C 132.265 7.27933 132.138 7.11467 131.986 6.988 C 131.834 6.836 131.657 6.76 131.454 6.76 H 131.264 V 6.38 H 136.736 V 6.76 H 136.546 C 136.344 6.76 136.166 6.836 136.014 6.988 C 135.862 7.11467 135.736 7.27933 135.634 7.482 C 135.533 7.68467 135.444 7.9 135.368 8.128 C 135.318 8.356 135.292 8.55867 135.292 8.736 V 30.054 H 143.614 C 144.096 30.054 144.514 29.94 144.868 29.712 C 145.223 29.484 145.514 29.2053 145.742 28.876 C 145.996 28.5213 146.173 28.154 146.274 27.774 C 146.401 27.3687 146.464 27.0013 146.464 26.672 H 146.844 V 31.46 H 131.264 V 31.08 Z" stroke-linecap="round"/>
</g>
		<g transform="matrix(1 0 0 1 72.937 -6.08)">
<path style="stroke: rgb(255,255,255); stroke-width: 1; stroke-dasharray: none; stroke-linecap: butt; stroke-dashoffset: 0; stroke-linejoin: miter; stroke-miterlimit: 4; is-custom-font: none; font-file-url: none; fill: none; fill-rule: nonzero; opacity: 1;" transform=" translate(-152.937, -18.92)" d="M 150.22 6.38 H 155.654 V 6.76 H 155.464 C 155.287 6.76 155.122 6.836 154.97 6.988 C 154.818 7.11467 154.692 7.27933 154.59 7.482 C 154.489 7.65933 154.4 7.87467 154.324 8.128 C 154.274 8.356 154.248 8.55867 154.248 8.736 V 28.99 C 154.248 29.1927 154.274 29.4207 154.324 29.674 C 154.375 29.902 154.451 30.1173 154.552 30.32 C 154.679 30.5227 154.806 30.7 154.932 30.852 C 155.084 31.004 155.262 31.08 155.464 31.08 H 155.654 V 31.46 H 150.22 V 31.08 H 150.41 C 150.613 31.08 150.79 31.0167 150.942 30.89 C 151.094 30.738 151.221 30.5607 151.322 30.358 C 151.449 30.13 151.538 29.902 151.588 29.674 C 151.639 29.4207 151.664 29.1927 151.664 28.99 V 8.736 C 151.664 8.55867 151.639 8.356 151.588 8.128 C 151.538 7.9 151.449 7.68467 151.322 7.482 C 151.221 7.27933 151.094 7.11467 150.942 6.988 C 150.79 6.836 150.613 6.76 150.41 6.76 H 150.22 V 6.38 Z" stroke-linecap="round"/>
</g>
		<g transform="matrix(1 0 0 1 -61.1311 0)">
<path style="stroke: none; stroke-width: 1; stroke-dasharray: none; stroke-linecap: butt; stroke-dashoffset: 0; stroke-linejoin: miter; stroke-miterlimit: 4; is-custom-font: none; font-file-url: none; fill: rgb(228,197,144); fill-rule: evenodd; opacity: 1;" transform=" translate(-18.869, -25)" d="M 32.5132 42.597 C 29.684 44.1297 26.4436 45 23 45 C 11.9543 45 3 36.0457 3 25 C 3 13.9543 11.9543 5 23 5 C 26.0521 5 28.9446 5.68368 31.5326 6.90625 C 31.3663 7.11885 31.209 7.34319 31.0619 7.57929 C 30.37 8.68974 29.8253 10.0318 29.47 11.4633 C 27.5111 10.5253 25.3169 10 23 10 C 14.7157 10 8 16.7157 8 25 C 8 33.2843 14.7157 40 23 40 C 27.2915 40 31.162 38.1978 33.8961 35.309 C 33.5961 36.4152 33.1892 37.6031 32.6373 38.9318 C 32.2262 39.809 32.1122 40.4488 32.1122 41.4602 C 32.1122 41.8663 32.2596 42.247 32.5132 42.597 Z M 29.0138 14.6134 C 28.8567 18.2765 30.0306 21.8663 33.1625 23.2555 C 34.135 24.128 34.7379 25.2124 34.7379 26.6199 C 34.7379 26.9224 34.7379 27.2186 34.7371 27.5099 C 33.5832 32.9324 28.7666 37 23 37 C 16.3726 37 11 31.6274 11 25 C 11 18.3726 16.3726 13 23 13 C 25.1914 13 27.2456 13.5874 29.0138 14.6134 Z" stroke-linecap="round"/>
</g>
		<g transform="matrix(1 0 0 1 -41.1234 0)">
<path style="stroke: none; stroke-width: 1; stroke-dasharray: none; stroke-linecap: butt; stroke-dashoffset: 0; stroke-linejoin: miter; stroke-miterlimit: 4; is-custom-font: none; font-file-url: none; fill: rgb(228,197,144); fill-rule: nonzero; opacity: 1;" transform=" translate(-38.8766, -25)" d="M 41.7607 22.8781 C 46.7982 20.5576 46.5779 13.151 43.8104 8.53905 C 40.9996 3.85445 36.7943 3.78631 33.9427 8.53905 C 31.1901 13.126 30.9363 20.5491 35.9923 22.8781 C 36.9183 23.7408 37.6263 25.4349 37.6263 26.8266 C 37.6263 31.0162 37.8838 34.3087 35.7001 39.1394 C 35.3086 40.0068 35.1257 40.6631 35.1257 41.2062 C 35.1257 43.2981 36.8081 45 38.8765 45 C 40.9449 45 42.6273 43.2981 42.6273 41.2062 C 42.6273 40.6631 42.4445 40.0068 42.053 39.1394 C 39.8389 34.2417 40.1268 30.7222 40.1268 26.8266 C 40.1268 25.4349 40.8348 23.7408 41.7607 22.8781 Z" stroke-linecap="round"/>
</g>
</g>
</g>
<g transform="matrix(1 0 0 1 608 467.25)" style="" id="156817">
		
<path xml:space="preserve" font-family="Andada" font-size="150" font-style="normal" font-weight="normal" style="stroke: none; stroke-width: 1; stroke-dasharray: none; stroke-linecap: butt; stroke-dashoffset: 0; stroke-linejoin: miter; stroke-miterlimit: 4; is-custom-font: none; font-file-url: none; fill: rgb(228,197,144); fill-rule: nonzero; opacity: 1; white-space: pre;" d="M-249.30-33.58L-249.30-33.58L-249.30 22.07Q-249.30 30.02-248.85 33.17L-248.85 33.17L-248.25 38.57L-230.55 38.57Q-225.30 38.57-217.50 37.22L-217.50 37.22Q-215.25 34.22-214.35 31.67L-214.35 31.67Q-214.20 30.47-213.23 26.50Q-212.25 22.52-212.10 21.62L-212.10 21.62L-203.85 22.37L-206.10 46.07L-207.60 47.72L-215.70 47.42Q-224.10 47.12-226.05 47.12L-226.05 47.12L-261 47.12Q-264.75 47.12-270.45 47.42L-270.45 47.42L-275.25 47.72L-276 39.92L-264.45 38.57Q-264.30 37.22-263.63 33.40Q-262.95 29.57-262.95 26.57L-262.95 26.57L-262.95-38.08Q-262.95-40.33-263.63-44.15Q-264.30-47.98-264.45-50.08L-264.45-50.08L-276-51.43L-275.25-59.38L-270.45-58.93Q-264.75-58.63-258.15-58.63Q-251.55-58.63-245.40-59.23L-245.40-59.23L-237.45-59.83L-236.55-50.98L-248.25-50.08L-248.85-44.68Q-249.30-41.53-249.30-33.58ZM-145.50-2.98L-150.45-3.43L-157.50-3.88L-165.45-3.88Q-166.95-3.88-171.75-3.58L-171.75-3.58L-171.75 22.07Q-171.75 32.27-170.85 38.57L-170.85 38.57L-149.25 38.57Q-143.10 38.57-136.20 37.37L-136.20 37.37Q-134.10 34.52-133.05 31.67L-133.05 31.67Q-132.90 30.47-131.93 26.50Q-130.95 22.52-130.80 21.62L-130.80 21.62L-122.55 22.37L-124.80 46.07L-126.30 47.72L-134.40 47.42Q-142.80 47.12-144.75 47.12L-144.75 47.12L-180.60 47.12Q-185.70 47.12-191.40 47.87L-191.40 47.87L-197.55 48.47L-198.60 39.92L-187.05 38.57Q-186.90 37.22-186.23 33.40Q-185.55 29.57-185.55 26.57L-185.55 26.57L-185.55-38.08Q-185.55-40.33-186.23-44.15Q-186.90-47.98-187.05-50.08L-187.05-50.08L-198.60-51.88L-197.85-59.38L-193.65-58.93Q-188.85-58.63-185.10-58.63L-185.10-58.63L-146.70-58.63Q-142.80-58.63-128.25-60.13L-128.25-60.13L-126.75-58.48L-125.70-37.03L-134.40-36.28Q-135.60-42.73-136.20-44.68Q-136.80-46.63-139.05-49.48L-139.05-49.48Q-144.75-50.23-151.20-50.23L-151.20-50.23L-170.85-50.23Q-171.75-44.23-171.75-33.58L-171.75-33.58L-171.75-11.98Q-166.65-11.68-165.45-11.68L-165.45-11.68L-154.50-11.68Q-150.90-11.68-145.50-13.03L-145.50-13.03L-144.15-22.93L-137.25-22.18Q-137.40-20.38-137.40-17.23L-137.40-17.23L-137.40-10.18Q-137.40-2.38-137.25 0.77L-137.25 0.77L-136.95 6.17L-144.15 7.07L-145.50-2.98ZM-3.15 21.92L6.00 21.62L6.90 44.27Q-14.70 49.37-27.45 49.37L-27.45 49.37Q-51.75 49.37-64.65 34.52Q-77.55 19.67-77.55-5.60Q-77.55-30.88-64.65-45.88Q-51.75-60.88-27.45-60.88L-27.45-60.88Q-15.30-60.88-3.30-57.88L-3.30-57.88Q4.20-56.08 5.55-55.78L5.55-55.78L3.90-33.58L-5.25-34.18L-5.25-41.23Q-5.25-43.63-7.05-48.73L-7.05-48.73Q-18.45-52.18-27.30-52.18L-27.30-52.18Q-43.80-52.18-52.65-39.20Q-61.50-26.23-61.50-5.83Q-61.50 14.57-52.65 27.62Q-43.80 40.67-27.30 40.67L-27.30 40.67Q-17.10 40.67-5.70 37.37L-5.70 37.37Q-3.45 30.92-3.30 28.90Q-3.15 26.87-3.15 24.92L-3.15 24.92L-3.15 21.92ZM29.85 22.97L58.95-58.63L67.05-60.28L83.55-17.38Q87.15-8.23 91.35 3.02L91.35 3.02Q100.35 26.72 100.95 27.92L100.95 27.92Q102.15 31.52 106.65 39.02L106.65 39.02L114.30 39.77L113.85 47.72L103.50 47.42Q92.40 47.12 89.55 47.12Q86.70 47.12 82.80 47.42L82.80 47.42L79.20 47.72L78.45 39.77L89.10 38.72Q88.05 31.37 86.85 27.77L86.85 27.77L80.85 12.17L43.50 12.62L37.35 29.87Q36.30 34.52 35.70 38.57L35.70 38.57L35.85 38.57L47.55 39.77L46.65 47.72L37.35 47.42Q26.85 47.12 23.17 47.12Q19.50 47.12 16.20 47.42L16.20 47.42L13.35 47.72L12.90 39.92L21.45 38.72Q29.70 23.57 29.85 22.97L29.85 22.97ZM61.50-38.23L46.35 4.52Q54.45 4.82 57.90 4.82Q61.35 4.82 68.02 4.60Q74.70 4.37 77.85 4.37L77.85 4.37L61.50-38.23ZM172.65-1.48L167.70-1.93L160.65-2.38L152.70-2.38Q151.50-2.38 146.40-2.08L146.40-2.08L146.40 22.07Q146.40 30.32 147.75 37.82L147.75 37.82L162.15 38.87L161.40 47.72L153.30 47.42Q144.00 47.12 138.22 47.12Q132.45 47.12 126.75 47.87L126.75 47.87L120.60 48.47L119.55 39.92L131.10 38.57Q131.25 37.22 131.92 33.40Q132.60 29.57 132.60 26.57L132.60 26.57L132.60-38.08Q132.60-40.33 131.92-44.15Q131.25-47.98 131.10-50.08L131.10-50.08L119.55-51.88L120.30-59.38L124.50-58.93Q129.30-58.63 133.05-58.63L133.05-58.63L171.45-58.63Q175.35-58.63 189.90-60.13L189.90-60.13L191.40-58.48L192.45-37.03L183.75-36.28Q182.55-42.73 181.95-44.68Q181.35-46.63 179.10-49.48L179.10-49.48Q173.40-50.23 166.95-50.23L166.95-50.23L147.30-50.23Q146.40-43.63 146.40-33.58L146.40-33.58L146.40-10.48Q151.50-10.18 152.70-10.18L152.70-10.18L163.65-10.18Q167.25-10.18 172.65-11.53L172.65-11.53L174.00-21.43L180.90-20.68Q180.75-18.88 180.75-15.73L180.75-15.73L180.75-8.68Q180.75-0.88 180.90 2.27L180.90 2.27L181.20 7.67L174.00 8.57L172.65-1.48ZM253.80-2.98L248.85-3.43L241.80-3.88L233.85-3.88Q232.35-3.88 227.55-3.58L227.55-3.58L227.55 22.07Q227.55 32.27 228.45 38.57L228.45 38.57L250.05 38.57Q256.20 38.57 263.10 37.37L263.10 37.37Q265.20 34.52 266.25 31.67L266.25 31.67Q266.40 30.47 267.37 26.50Q268.35 22.52 268.50 21.62L268.50 21.62L276.75 22.37L274.50 46.07L273.00 47.72L264.90 47.42Q256.50 47.12 254.55 47.12L254.55 47.12L218.70 47.12Q213.60 47.12 207.90 47.87L207.90 47.87L201.75 48.47L200.70 39.92L212.25 38.57Q212.40 37.22 213.07 33.40Q213.75 29.57 213.75 26.57L213.75 26.57L213.75-38.08Q213.75-40.33 213.07-44.15Q212.40-47.98 212.25-50.08L212.25-50.08L200.70-51.88L201.45-59.38L205.65-58.93Q210.45-58.63 214.20-58.63L214.20-58.63L252.60-58.63Q256.50-58.63 271.05-60.13L271.05-60.13L272.55-58.48L273.60-37.03L264.90-36.28Q263.70-42.73 263.10-44.68Q262.50-46.63 260.25-49.48L260.25-49.48Q254.55-50.23 248.10-50.23L248.10-50.23L228.45-50.23Q227.55-44.23 227.55-33.58L227.55-33.58L227.55-11.98Q232.65-11.68 233.85-11.68L233.85-11.68L244.80-11.68Q248.40-11.68 253.80-13.03L253.80-13.03L255.15-22.93L262.05-22.18Q261.90-20.38 261.90-17.23L261.90-17.23L261.90-10.18Q261.90-2.38 262.05 0.77L262.05 0.77L262.35 6.17L255.15 7.07L253.80-2.98Z"/></g>
</svg>